<?xml version="1.0" encoding="UTF-8"?>
<!-- Generator: Adobe Illustrator 27.0.0, SVG Export Plug-In . SVG Version: 6.00 Build 0)  -->
<svg xmlns="http://www.w3.org/2000/svg" xmlns:xlink="http://www.w3.org/1999/xlink" version="1.1" id="Layer_1" x="0px" y="0px" width="229px" height="85px" viewBox="0 0 229 85" style="enable-background:new 0 0 229 85;" xml:space="preserve">
<style type="text/css">
	.st0{fill:#FFFFFF;}
</style>
<g>
	<g id="XMLID_00000024000316900887678650000014493769109888136352_">
		<rect id="XMLID_00000175292167263966329070000012600022577667635899_" x="88.4" y="6.4" class="st0" width="2.1" height="33.2"></rect>
	</g>
	<g>
		<polygon class="st0" points="137.1,65.6 142.5,65.6 139.8,57.1   "></polygon>
		<path class="st0" d="M185.4,57.2c-3.4,0-5.8,2.5-5.8,6.2c0,3.7,2.3,6.2,5.8,6.2c3.5,0,5.8-2.5,5.8-6.2    C191.2,59.7,188.9,57.2,185.4,57.2z"></path>
		<path class="st0" d="M88.4,43.8v35.7H223V43.8H88.4z M159.8,46.9c2.1,0,3.2,1.6,4.3,1.6c0.7,0,1.1-0.6,1.2-1.4h2.6    c-0.3,2.7-1.8,4.5-3.8,4.5c-2.2,0-3.3-1.7-4.3-1.7c-0.7,0-1.1,0.6-1.2,1.4H156C156.3,48.7,157.8,46.9,159.8,46.9z M105.3,73.7h-5    V60.5c-1.2,1-3,1.7-4.7,1.8v-4.5c3.2-0.4,5.3-1.9,6.1-4.7h3.6V73.7z M116.5,74.2c-5,0-7.7-2.8-8.4-6.6h4.9    c0.4,1.6,1.7,2.6,3.4,2.6c1.9,0,3.2-1.4,3.2-3.4c0-2-1.3-3.3-3.2-3.3c-1.3,0-2.4,0.6-3,1.4h-4.6l1.6-11.8h12.3v4h-8.6l-0.6,4.7    c1.1-1.2,2.6-1.8,4.4-1.8c3.7,0,6.5,2.8,6.5,6.4C124.4,70.9,121.3,74.2,116.5,74.2z M144.8,73.7l-1.4-4.3h-7.1l-1.4,4.3h-5.4    l6.9-20.5h7.2l7.1,20.5H144.8z M171.3,73.7h-5.8L157.2,60v13.7h-4.8V53.2h5.8l8.3,13.7V53.2h4.8V73.7z M185.4,74.2    c-6.8,0-11.4-4.6-11.4-10.8c0-6.2,4.5-10.8,11.4-10.8c6.9,0,11.4,4.6,11.4,10.8C196.8,69.6,192.3,74.2,185.4,74.2z M206.9,74.2    c-5,0-8.3-2.9-8.7-7h5.1c0.2,2,1.7,3.2,3.7,3.2c1.8,0,2.8-0.9,2.8-2.1c0-0.7-0.2-1.3-0.7-1.6c-0.5-0.4-1.4-0.7-2.7-1    c-5.2-1.2-7.3-3.2-7.3-6.7c0-3.8,3-6.2,7.7-6.2c4.7,0,7.4,2.4,7.9,6.3h-5c-0.2-1.6-1.2-2.5-2.9-2.5c-1.6,0-2.5,0.9-2.5,2.1    c0,1.3,0.8,1.9,2.9,2.4c5.5,1.3,7.9,3.4,7.9,6.8C215,71.8,211.8,74.2,206.9,74.2z"></path>
	</g>
	<path class="st0" d="M78.8,76.8v-1.1h0.6c0.2,0,0.4,0,0.5,0.1c0.1,0.1,0.2,0.2,0.2,0.4s-0.1,0.3-0.2,0.4c-0.1,0.1-0.3,0.1-0.5,0.1   H78.8z M80.8,76.3c0-0.3-0.1-0.6-0.4-0.8c-0.2-0.2-0.6-0.3-1-0.3h-1.3v3.2h0.7v-1h0.6h0.1l0.6,1h0.7l-0.7-1.1   c0.2-0.1,0.4-0.2,0.5-0.4C80.7,76.7,80.8,76.5,80.8,76.3 M79.3,79.1c-0.4,0-0.8-0.1-1.2-0.3c-0.4-0.2-0.6-0.5-0.8-0.9   c-0.2-0.4-0.3-0.8-0.3-1.2c0-0.4,0.1-0.8,0.3-1.2c0.2-0.4,0.5-0.7,0.9-0.9c0.4-0.2,0.8-0.3,1.2-0.3c0.4,0,0.9,0.1,1.2,0.3   c0.4,0.2,0.6,0.5,0.8,0.9c0.2,0.4,0.3,0.8,0.3,1.2c0,0.4-0.1,0.8-0.3,1.2c-0.2,0.4-0.5,0.7-0.9,0.9C80.1,79,79.7,79.1,79.3,79.1    M79.3,73.9c-0.5,0-1,0.1-1.4,0.4c-0.4,0.3-0.8,0.6-1,1c-0.2,0.4-0.4,0.9-0.4,1.4s0.1,1,0.4,1.4c0.2,0.4,0.6,0.8,1,1   c0.4,0.3,0.9,0.4,1.4,0.4c0.5,0,1-0.1,1.4-0.4c0.4-0.3,0.8-0.6,1-1c0.3-0.4,0.4-0.9,0.4-1.4c0-0.5-0.1-1-0.4-1.4   c-0.2-0.4-0.6-0.8-1-1C80.3,74.1,79.8,73.9,79.3,73.9"></path>
	<g>
		<path class="st0" d="M44.1,4.8c-21,0-38,17-38,38c0,21,17,38,38,38c21,0,38-17,38-38C82.1,21.9,65.1,4.8,44.1,4.8z M44.1,74    C26.9,74,13,60.1,13,42.9c0-17.2,13.9-31.1,31.1-31.1c17.2,0,31.1,13.9,31.1,31.1C75.2,60.1,61.3,74,44.1,74z"></path>
		<g>
			<path class="st0" d="M48.3,26.4c0-0.4-0.2-0.7-0.6-0.7c-0.5,0-0.8,0.3-0.8,0.9h1.4C48.3,26.5,48.3,26.4,48.3,26.4z"></path>
			<path class="st0" d="M36.3,33.4c-1.8,0-2.8,1.5-2.8,4c0,2.4,1,4,2.8,4c1.8,0,2.8-1.5,2.8-4C39.1,34.9,38.1,33.4,36.3,33.4z"></path>
			<path class="st0" d="M46.2,37.3c0,2.4,1,4,2.8,4c1.8,0,2.8-1.5,2.8-4c0-2.4-1-4-2.8-4C47.1,33.4,46.2,34.9,46.2,37.3z"></path>
			<path class="st0" d="M44.1,13.8c-16,0-29,13-29,29c0,16,13,29,29,29s29-13,29-29C73.1,26.8,60.1,13.8,44.1,13.8z M56,30.9h4.9     c3.8,0,6.5,2,6.5,6.4c0,4.4-2.7,6.5-6.5,6.5H56V30.9z M55.1,37.3c0,4.1-2.4,6.7-6.2,6.7c-3.7,0-6.1-2.5-6.1-6.7     c0-4.1,2.4-6.7,6.1-6.7C52.7,30.6,55.1,33.2,55.1,37.3z M47.7,24.6c1.3,0,2,0.9,2,2c0,0.2,0,0.4-0.1,0.6h-2.7c0,0.6,0.3,1,0.9,1     c0.4,0,0.6-0.2,0.7-0.6l1.2,0.4c-0.3,0.9-1.1,1.3-2,1.3c-1.4,0-2.2-0.9-2.2-2.3C45.4,25.6,46.3,24.6,47.7,24.6z M37.1,24.7h0.6     v-1l1.5-0.2v1.1h1.2v1.1h-1.2v1.8c0,0.4,0.2,0.5,0.5,0.5c0.2,0,0.4-0.1,0.7-0.2l0.2,1c-0.3,0.2-0.8,0.4-1.2,0.4     c-1,0-1.6-0.5-1.6-1.5v-2h-0.6V24.7z M21.1,30.9h9v2.7h-5.7v3h5v2.6h-5v4.6h-3.2V30.9z M32.4,48.3h-4.1v10.2h-3.3V48.3h-4v-2.7     h11.4V48.3z M42.3,58.5h-9.1V45.6h9.1v2.7h-6v2.5h5.3v2.4h-5.3v2.6h6V58.5z M36.3,44c-3.7,0-6.1-2.5-6.1-6.7     c0-4.1,2.4-6.7,6.1-6.7c3.7,0,6.2,2.5,6.2,6.7C42.5,41.5,40.1,44,36.3,44z M42.3,26.8v2.5h-1.5v-6.5h1.5v2.7     c0.2-0.6,0.8-0.9,1.4-0.9c0.8,0,1.4,0.5,1.4,1.5v3.2h-1.5v-2.7c0-0.4-0.2-0.7-0.6-0.7C42.6,25.9,42.3,26.1,42.3,26.8z M48.8,56     c1.3,0,2-0.8,2.2-2l2.9,1.3c-0.7,2.1-2.5,3.4-5.1,3.4c-3.7,0-6.1-2.5-6.1-6.7c0-4.2,2.4-6.7,6.1-6.7c2.6,0,4.4,1.3,5.1,3.4     L51,50.1c-0.3-1.2-1-2-2.2-2c-1.6,0-2.7,1.3-2.7,3.9C46.1,54.7,47.2,56,48.8,56z M66,58.5h-3.2v-5.1h-4.9v5.1h-3.2V45.6h3.2v5     h4.9v-5H66V58.5z"></path>
			<path class="st0" d="M64.1,37.3c0-2.7-1.5-3.7-3.3-3.7h-1.5v7.5h1.4C62.6,41.1,64.1,40,64.1,37.3z"></path>
		</g>
	</g>
	<g>
		<path class="st0" d="M97.6,16.2h3.6c0.2,1.4,1.2,2.2,2.6,2.2c1.3,0,2-0.6,2-1.5c0-0.5-0.2-0.9-0.5-1.2c-0.3-0.3-1-0.5-1.9-0.7    c-3.7-0.8-5.2-2.3-5.2-4.8c0-2.7,2.1-4.4,5.5-4.4c3.4,0,5.3,1.7,5.6,4.5h-3.5c-0.2-1.1-0.8-1.8-2-1.8c-1.1,0-1.8,0.6-1.8,1.5    c0,0.9,0.6,1.4,2,1.7c3.9,0.9,5.6,2.4,5.6,4.8c0,2.9-2.3,4.5-5.7,4.5C100.2,21.2,97.9,19.2,97.6,16.2z"></path>
		<path class="st0" d="M111.3,15V6.3h3.8v9c0,1.9,1,2.9,2.8,2.9s2.8-1,2.8-2.9v-9h3.7V15c0,4.1-2.6,6.2-6.5,6.2    C114,21.2,111.3,19.1,111.3,15z"></path>
		<path class="st0" d="M126.9,20.8V6.3h5.1l3.3,10l3.2-10h5v14.5h-3.5V10.3l-3.4,10.6h-3.2l-3.4-10.6v10.6H126.9z"></path>
		<path class="st0" d="M146.3,20.8V6.3h5.1l3.3,10l3.2-10h5v14.5h-3.5V10.3l-3.4,10.6H153l-3.4-10.6v10.6H146.3z"></path>
		<path class="st0" d="M165.7,20.8V6.3h3.7v14.5H165.7z"></path>
		<path class="st0" d="M175.3,20.8V9.3h-4.2v-3h12.2v3h-4.2v11.5H175.3z"></path>
		<path class="st0" d="M97.9,35.3c0-2.4,1.3-3.7,3.9-4.6c-1.4-1.4-1.9-2.4-1.9-3.9c0-2.4,1.9-4.2,5.2-4.2c1.7,0,2.9,0.4,3.8,1.2    c0.9,0.8,1.4,1.8,1.4,3c0,2.1-1.6,3.5-3.6,4.5l2.4,2.3c0.5-0.7,0.8-1.8,1-2.6h3.6c-0.2,1.4-1.1,3.6-2.3,4.9l3.9,3.8h-4.3l-1.7-1.6    c-1.6,1.5-3.2,2-5.4,2C100.1,40,97.9,37.9,97.9,35.3z M104.3,37c1.2,0,2.1-0.4,2.8-1.1l-3.5-3.4c-1.3,0.6-1.9,1.3-1.9,2.3    C101.8,36.2,102.7,37,104.3,37z M104.8,29.6c1.3-0.6,2-1.5,2-2.5c0-0.9-0.7-1.5-1.7-1.5c-1.1,0-1.7,0.6-1.7,1.6    c0,0.8,0.4,1.4,1.2,2.2L104.8,29.6z"></path>
		<path class="st0" d="M120,39.6V23.1h11.7v3.4h-7.5v3.2h6.5v3.3h-6.5v3.3h7.9v3.4H120z"></path>
		<path class="st0" d="M132.5,39.6l5.6-8.3l-5.5-8.2h5l3.3,5.4l3.3-5.4h4.7l-5.4,8.1l5.6,8.5h-5l-3.4-5.6l-3.5,5.6H132.5z"></path>
		<path class="st0" d="M150.5,39.6V23.1h7c4.2,0,6.5,2.4,6.5,5.7c0,3.3-2.3,5.7-6.5,5.7h-2.8v5.1H150.5z M154.8,31.3h2.4    c1.7,0,2.6-0.8,2.6-2.5s-0.9-2.5-2.6-2.5h-2.4V31.3z"></path>
		<path class="st0" d="M165.1,31.4c0-5,3.7-8.7,9.2-8.7c5.5,0,9.2,3.7,9.2,8.7c0,5-3.6,8.7-9.2,8.7C168.7,40,165.1,36.3,165.1,31.4z     M178.9,31.4c0-3-1.9-5-4.7-5c-2.8,0-4.6,2-4.6,5c0,3,1.9,5,4.6,5C177,36.4,178.9,34.4,178.9,31.4z"></path>
	</g>
	<g id="XMLID_00000143612019996756741390000000532912396403402884_">
		<rect id="XMLID_00000127745041391074943820000010402051936453300896_" x="189" y="6.3" class="st0" width="2.1" height="33.3"></rect>
	</g>
	<g>
		<path class="st0" d="M197.2,21.9c0-4,1.1-6.2,5.3-8.6c1.9-1,2.4-1.6,2.4-2.6c0-1-0.7-1.7-1.8-1.7c-1.4,0-2.2,0.9-2.3,2.5h-3.6    c0.4-3.4,2.5-5.4,5.9-5.4c3.3,0,5.2,1.9,5.2,4.7c0,2.1-1,3.5-3.9,5.1c-1.9,1.1-2.7,1.9-2.9,3h6.8v3H197.2z"></path>
	</g>
	<g>
		<path class="st0" d="M210,14.2c0-4.9,2.6-8.1,6.5-8.1c3.9,0,6.5,3.2,6.5,8.1c0,4.9-2.5,8.1-6.5,8.1C212.6,22.2,210,19.1,210,14.2z     M219.1,14.2c0-3.3-0.9-4.9-2.6-4.9c-1.7,0-2.6,1.7-2.6,4.9c0,3.2,0.9,4.9,2.6,4.9C218.2,19.1,219.1,17.4,219.1,14.2z"></path>
	</g>
	<g>
		<path class="st0" d="M197.2,39.6c0-4,1.1-6.2,5.3-8.6c1.9-1,2.4-1.6,2.4-2.6c0-1-0.7-1.7-1.8-1.7c-1.4,0-2.2,0.9-2.3,2.5h-3.6    c0.4-3.4,2.5-5.4,5.9-5.4c3.3,0,5.2,1.9,5.2,4.7c0,2.1-1,3.5-3.9,5.1c-1.9,1.1-2.7,1.9-2.9,3h6.8v3H197.2z"></path>
	</g>
	<g>
		<path class="st0" d="M210.5,34.8h3.6c0.2,1.5,1.2,2.2,2.6,2.2c1.3,0,2.2-0.8,2.2-2c0-1.3-1-1.9-2.4-1.9h-2v-2.8h1.9    c1.3,0,2.1-0.6,2.1-1.8c0-1-0.7-1.8-1.8-1.8c-1.2,0-2,0.7-2.1,2h-3.6c0.5-3.2,2.5-4.9,5.8-4.9c3,0,5.1,1.7,5.1,4.4    c0,1.6-0.9,2.8-2.4,3.3c1.8,0.5,2.9,1.9,2.9,3.7c0,2.7-2.2,4.7-5.6,4.7C213,40,210.8,38,210.5,34.8z"></path>
	</g>
</g>
</svg>
